# xmcd
#
# Track frame offsets:
#	150
#	28400
#	69647
#	108735
#	150495
#	190640
#	230997
#
# Disc length: 3446 seconds
# Revision: 1
# Processed by: cddbd v1.5.2PL0 Copyright (c) Steve Scherf et al.
# Submitted via: dBpowerAMP V12.0
#
DISCID=600d7407
DTITLE=Shirley Scott -  Blues Everywhere ~ Live @ Birdland, NYC, Nov 1991 [dBP-LITE02-1-FLAC@]
DYEAR=1991
DGENRE=Jazz
TTITLE0=Autumn Leaves
TTITLE1=Blues Everywhere
TTITLE2=Oasis
TTITLE3=Embraceable you
TTITLE4=Triste
TTITLE5=Round Midnight
TTITLE6=The Theme
EXTD=
EXTT0=
EXTT1=
EXTT2=
EXTT3=
EXTT4=
EXTT5=
EXTT6=
PLAYORDER=
